<?xml version="1.0" encoding="utf-8"?>
<!-- Generator: Adobe Illustrator 18.0.0, SVG Export Plug-In . SVG Version: 6.00 Build 0)  -->
<!DOCTYPE svg PUBLIC "-//W3C//DTD SVG 1.1//EN" "http://www.w3.org/Graphics/SVG/1.1/DTD/svg11.dtd">
<svg version="1.1" id="Layer_1" xmlns="http://www.w3.org/2000/svg" xmlns:xlink="http://www.w3.org/1999/xlink" x="0px" y="0px"
	 viewBox="0 0 92.3 32.4" enable-background="new 0 0 92.3 32.4" xml:space="preserve">
<g>
	<path d="M86.1,32.4H5.3C2.4,32.4,0,30,0,27.1V6.2C0,3.3,2.4,1,5.3,1h80.9c2.9,0,5.3,2.4,5.3,5.3v20.9C91.4,30,89,32.4,86.1,32.4z"
		/>
</g>
<g>
	<path fill="#570A63" d="M87,31.4H6.2c-2.9,0-5.3-2.4-5.3-5.3V5.3C0.9,2.4,3.3,0,6.2,0H87c2.9,0,5.3,2.4,5.3,5.3v20.9
		C92.3,29.1,89.9,31.4,87,31.4z"/>
</g>
<text transform="matrix(1 0 0 1 13.8753 22.6954)" font-family="'Edo'" font-size="11">Start Quiz</text>
<text transform="matrix(1 0 0 1 15.8753 20.6954)" fill="#FFFFFF" font-family="'Edo'" font-size="11">Start Quiz</text>
</svg>
